# xmcd
#
# Track frame offsets:
#	150
#	17103
#	39090
#	63199
#	90140
#	110591
#	130636
#	148169
#	159525
#	183577
#	199566
#	215415
#	221064
#	228280
#	234227
#	259376
#	286959
#	303007
#	314962
#
# Disc length: 4428 seconds
#
# Revision: 0
# Processed by: cddbd v1.5.2PL0 Copyright (c) Steve Scherf et al.
# Submitted via: EZCDAudioConverter 5.5.1.1
#
DISCID=09114a13
DTITLE=Karl Rehn - Karl Rehn 2017 Promo
DYEAR=1900
DGENRE=
TTITLE0=Karl Rehn Trio - Don't Deny Me (live)
TTITLE1=Karl Rehn Trio - Chitlins Con Carne (live)
TTITLE2=Karl Rehn Trio - Can't You See (live)
TTITLE3=Karl Rehn Trio - Beautiful Love (live)
TTITLE4=Karl Rehn Trio - The Thrill is Gone (live)
TTITLE5=Karl Rehn w/ Wayne Smith - For July 3
TTITLE6=Karl Rehn - Midnight Gospel
TTITLE7=Midnight Express - Get Ready (live)
TTITLE8=Midnight Express - Never Been Any Reason (live)
TTITLE9=Midnight Express - Heart of Rock and Roll (live)
TTITLE10=Midnight Express - Like an Echo
TTITLE11=Brazos Valley All-Star Band - Jambalaya
TTITLE12=Brazos Valley All-Star Band - Love the One You're With
TTITLE13=Brazos Valley All-Star Band - Signed Sealed Delivered I'm Yours
TTITLE14=Leannasaurus Rex - That's a Lie
TTITLE15=Leannasaurus Rex - Siftin' Through the Ashes
TTITLE16=Java Jazz - Uh-Huh
TTITLE17=Tubie and the Touchtones - Backseat Driver (remix)
TTITLE18=Joey McGee - Alien Jive
EXTD=
EXTT0=
EXTT1=
EXTT2=
EXTT3=
EXTT4=
EXTT5=
EXTT6=
EXTT7=
EXTT8=
EXTT9=
EXTT10=
EXTT11=
EXTT12=
EXTT13=
EXTT14=
EXTT15=
EXTT16=
EXTT17=
EXTT18=
PLAYORDER=
